<svg xmlns="http://www.w3.org/2000/svg" viewBox="0 0 300 300"><defs><style>.cls-1{fill:#4154ff;}.cls-2{fill:#fff;}</style></defs><g id="Layer_2" data-name="Layer 2"><g id="Layer_1-2" data-name="Layer 1"><rect class="cls-1" width="300" height="300" rx="33.92"/><path class="cls-2" d="M213.41,121.29S195.5,177.55,194,182.19c-.53-4.77-13.67-105.76-13.67-105.76-30.52,0-46.84,21.77-55.47,44.72,0,0-21.76,56.4-23.62,61.18C101.15,178,98,121.82,98,121.82c-1.85-28.14-27.6-45.25-48.43-45.25l25.21,153c32-.14,49.23-21.77,58.26-44.72,0,0,19.24-49.76,20-52,.14,2.12,13.8,96.74,13.8,96.74,32.12,0,49.37-20.31,58.66-42.47l45-110.53C238.76,76.57,222,98.2,213.41,121.29Z"/></g></g></svg>